<?xml version="1.0" encoding="UTF-8" standalone="no"?>
<!DOCTYPE svg PUBLIC "-//W3C//DTD SVG 1.1//EN"
 "http://www.w3.org/Graphics/SVG/1.1/DTD/svg11.dtd">
<!-- Generated by graphviz version 2.43.0 (0)
 -->
<!-- Title: SmartCare Pages: 1 -->
<svg width="775pt" height="394pt"
 viewBox="0.00 0.00 775.00 394.00" xmlns="http://www.w3.org/2000/svg" xmlns:xlink="http://www.w3.org/1999/xlink">
<g id="graph0" class="graph" transform="scale(1 1) rotate(0) translate(4 390)">
<title>SmartCare</title>
<polygon fill="white" stroke="transparent" points="-4,4 -4,-390 771,-390 771,4 -4,4"/>
<!-- Patient -->
<g id="node1" class="node">
<title>Patient</title>
<polygon fill="#dbe9f7" stroke="transparent" points="25.5,-365 25.5,-385 172.5,-385 172.5,-365 25.5,-365"/>
<text text-anchor="start" x="76.5" y="-373.2" font-family="Helvetica,sans-Serif" font-weight="bold" font-size="11.00">Patient</text>
<text text-anchor="start" x="29.5" y="-352.2" font-family="Helvetica,sans-Serif" font-size="11.00">&#45; patient_id</text>
<text text-anchor="start" x="29.5" y="-340.2" font-family="Helvetica,sans-Serif" font-size="11.00">&#45; name</text>
<text text-anchor="start" x="29.5" y="-320.2" font-family="Helvetica,sans-Serif" font-size="11.00">+ matches_id(patient_id)</text>
<text text-anchor="start" x="29.5" y="-308.2" font-family="Helvetica,sans-Serif" font-size="11.00">+ matches_name(text)</text>
<polygon fill="black" stroke="black" points="24.5,-365 24.5,-365 173.5,-365 173.5,-365 24.5,-365"/>
<polygon fill="black" stroke="black" points="24.5,-333 24.5,-333 173.5,-333 173.5,-333 24.5,-333"/>
<polygon fill="none" stroke="black" points="24,-300 24,-386 173,-386 173,-300 24,-300"/>
</g>
<!-- Appointment -->
<g id="node3" class="node">
<title>Appointment</title>
<polygon fill="#dbe9f7" stroke="transparent" points="335,-244 335,-264 507,-264 507,-244 335,-244"/>
<text text-anchor="start" x="381.5" y="-252.2" font-family="Helvetica,sans-Serif" font-weight="bold" font-size="11.00">Appointment</text>
<text text-anchor="start" x="339" y="-231.2" font-family="Helvetica,sans-Serif" font-size="11.00">&#45; appointment_id</text>
<text text-anchor="start" x="339" y="-219.2" font-family="Helvetica,sans-Serif" font-size="11.00">&#45; date</text>
<text text-anchor="start" x="339" y="-207.2" font-family="Helvetica,sans-Serif" font-size="11.00">&#45; time</text>
<text text-anchor="start" x="339" y="-195.2" font-family="Helvetica,sans-Serif" font-size="11.00">&#45; status : AppointmentStatus</text>
<text text-anchor="start" x="339" y="-175.2" font-family="Helvetica,sans-Serif" font-size="11.00">+ is_active()</text>
<text text-anchor="start" x="339" y="-163.2" font-family="Helvetica,sans-Serif" font-size="11.00">+ conflicts_with(other)</text>
<text text-anchor="start" x="339" y="-151.2" font-family="Helvetica,sans-Serif" font-size="11.00">+ change_status(new_status)</text>
<text text-anchor="start" x="339" y="-139.2" font-family="Helvetica,sans-Serif" font-size="11.00">+ cancel()</text>
<polygon fill="black" stroke="black" points="334,-244 334,-244 508,-244 508,-244 334,-244"/>
<polygon fill="black" stroke="black" points="334,-188 334,-188 508,-188 508,-188 334,-188"/>
<polygon fill="none" stroke="black" points="334,-131 334,-265 508,-265 508,-131 334,-131"/>
</g>
<!-- Patient&#45;&gt;Appointment -->
<g id="edge1" class="edge">
<title>Patient&#45;&gt;Appointment</title>
<path fill="none" stroke="black" d="M173.03,-309.73C220.89,-288.08 283.53,-259.74 333.75,-237.02"/>
<text text-anchor="middle" x="265.5" y="-277.2" font-family="Helvetica,sans-Serif" font-size="11.00">has</text>
<text text-anchor="middle" x="319.41" y="-250.91" font-family="Helvetica,sans-Serif" font-size="11.00">0..*</text>
<text text-anchor="middle" x="187.36" y="-290.24" font-family="Helvetica,sans-Serif" font-size="11.00">1</text>
</g>
<!-- Practitioner -->
<g id="node2" class="node">
<title>Practitioner</title>
<polygon fill="#dbe9f7" stroke="transparent" points="13.5,-214 13.5,-234 184.5,-234 184.5,-214 13.5,-214"/>
<text text-anchor="start" x="62" y="-222.2" font-family="Helvetica,sans-Serif" font-weight="bold" font-size="11.00">Practitioner</text>
<text text-anchor="start" x="17.5" y="-201.2" font-family="Helvetica,sans-Serif" font-size="11.00">&#45; practitioner_id</text>
<text text-anchor="start" x="17.5" y="-189.2" font-family="Helvetica,sans-Serif" font-size="11.00">&#45; name</text>
<text text-anchor="start" x="17.5" y="-169.2" font-family="Helvetica,sans-Serif" font-size="11.00">+ matches_id(practitioner_id)</text>
<polygon fill="black" stroke="black" points="12.5,-214 12.5,-214 185.5,-214 185.5,-214 12.5,-214"/>
<polygon fill="black" stroke="black" points="12.5,-182 12.5,-182 185.5,-182 185.5,-182 12.5,-182"/>
<polygon fill="none" stroke="black" points="12,-161 12,-235 185,-235 185,-161 12,-161"/>
</g>
<!-- Practitioner&#45;&gt;Appointment -->
<g id="edge2" class="edge">
<title>Practitioner&#45;&gt;Appointment</title>
<path fill="none" stroke="black" d="M185.39,-198C231.37,-198 287.85,-198 333.87,-198"/>
<text text-anchor="middle" x="265.5" y="-201.2" font-family="Helvetica,sans-Serif" font-size="11.00">attends</text>
<text text-anchor="middle" x="313.94" y="-204.5" font-family="Helvetica,sans-Serif" font-size="11.00">0..*</text>
<text text-anchor="middle" x="205.33" y="-185.9" font-family="Helvetica,sans-Serif" font-size="11.00">1</text>
</g>
<!-- Status -->
<g id="node4" class="node">
<title>Status</title>
<polygon fill="#fdf0c8" stroke="transparent" points="638,-205 638,-235 766,-235 766,-205 638,-205"/>
<text text-anchor="start" x="660" y="-223.2" font-family="Helvetica,sans-Serif" font-size="11.00">«enumeration»</text>
<text text-anchor="start" x="642" y="-212.2" font-family="Helvetica,sans-Serif" font-weight="bold" font-size="11.00">AppointmentStatus</text>
<text text-anchor="start" x="642" y="-192.2" font-family="Helvetica,sans-Serif" font-size="11.00">SCHEDULED</text>
<text text-anchor="start" x="642" y="-180.2" font-family="Helvetica,sans-Serif" font-size="11.00">COMPLETED</text>
<text text-anchor="start" x="642" y="-168.2" font-family="Helvetica,sans-Serif" font-size="11.00">CANCELLED</text>
<polygon fill="black" stroke="black" points="637,-205 637,-205 767,-205 767,-205 637,-205"/>
<polygon fill="none" stroke="black" points="637,-160 637,-236 767,-236 767,-160 637,-160"/>
</g>
<!-- Appointment&#45;&gt;Status -->
<g id="edge3" class="edge">
<title>Appointment&#45;&gt;Status</title>
<path fill="none" stroke="black" stroke-dasharray="5,2" d="M508.37,-198C546.25,-198 590.29,-198 626.69,-198"/>
<polygon fill="black" stroke="black" points="636.74,-198 626.74,-202.5 631.74,-198 626.74,-198 626.74,-198 626.74,-198 631.74,-198 626.74,-193.5 636.74,-198 636.74,-198"/>
<text text-anchor="middle" x="572.5" y="-201.2" font-family="Helvetica,sans-Serif" font-size="11.00">status</text>
</g>
<!-- Book -->
<g id="node5" class="node">
<title>Book</title>
<polygon fill="#e3f3e3" stroke="transparent" points="1.5,-65 1.5,-95 196.5,-95 196.5,-65 1.5,-65"/>
<text text-anchor="start" x="44" y="-83.2" font-family="Helvetica,sans-Serif" font-weight="bold" font-size="11.00">AppointmentBook</text>
<text text-anchor="start" x="72" y="-72.2" font-family="Helvetica,sans-Serif" font-size="11.00">(optional)</text>
<text text-anchor="start" x="5.5" y="-52.2" font-family="Helvetica,sans-Serif" font-size="11.00">&#45; appointments</text>
<text text-anchor="start" x="5.5" y="-32.2" font-family="Helvetica,sans-Serif" font-size="11.00">+ book(appointment)</text>
<text text-anchor="start" x="5.5" y="-20.2" font-family="Helvetica,sans-Serif" font-size="11.00">+ schedule_for(practitioner, date)</text>
<text text-anchor="start" x="5.5" y="-8.2" font-family="Helvetica,sans-Serif" font-size="11.00">+ history_for(patient)</text>
<polygon fill="black" stroke="black" points="0.5,-65 0.5,-65 197.5,-65 197.5,-65 0.5,-65"/>
<polygon fill="black" stroke="black" points="0.5,-45 0.5,-45 197.5,-45 197.5,-45 0.5,-45"/>
<polygon fill="none" stroke="black" stroke-dasharray="5,2" points="0,0 0,-96 197,-96 197,0 0,0"/>
</g>
<!-- Book&#45;&gt;Appointment -->
<g id="edge4" class="edge">
<title>Book&#45;&gt;Appointment</title>
<path fill="none" stroke="black" d="M208.52,-99.02C249.41,-118.16 295.28,-139.63 333.83,-157.67"/>
<polygon fill="none" stroke="black" points="208.27,-98.91 201.14,-99.99 197.4,-93.82 204.53,-92.74 208.27,-98.91"/>
<text text-anchor="middle" x="265.5" y="-134.2" font-family="Helvetica,sans-Serif" font-size="11.00">holds</text>
<text text-anchor="middle" x="311.83" y="-154.84" font-family="Helvetica,sans-Serif" font-size="11.00">0..*</text>
</g>
</g>
</svg>
